<svg id="Capa_1" enable-background="new 0 0 512.066 512.066" height="512" viewBox="0 0 512.066 512.066" width="512" xmlns="http://www.w3.org/2000/svg"><g id="Outline_40_" fill="#233d91"><path d="m364.533 140.066v-52.5c0-60.971-61.101-103.242-118-82.012-56.905-21.232-118 21.05-118 82.012v52.5h-60.5v372h376v-372zm-15-52.5v52.5h-46v-52.5c0-29.619-14.795-55.843-37.38-71.682 43.816-6.623 83.38 27.364 83.38 71.682zm-61 0v52.5h-84v-52.5c0-29.085 17.224-54.209 42-65.749 24.776 11.54 42 36.664 42 65.749zm-145 0c0-44.276 39.519-78.312 83.38-71.682-22.585 15.839-37.38 42.063-37.38 71.682v52.5h-46zm229.5 409.5h-290v-342h45.5v34h-22v15h62v-15h-25v-34h145v34h-22v15h62v-15h-25v-34h69.5zm56 0h-41v-342h41z"/><path d="m224.533 238.566c-64.79 0-117.5 52.71-117.5 117.5s52.71 117.5 117.5 117.5 117.5-52.71 117.5-117.5-52.71-117.5-117.5-117.5zm0 220c-56.519 0-102.5-45.981-102.5-102.5s45.981-102.5 102.5-102.5 102.5 45.981 102.5 102.5-45.982 102.5-102.5 102.5z"/><path d="m193.239 383.096-30.706-23.03-9 12 41.294 30.969 91.598-94.756-10.785-10.426z"/></g></svg>